<svg xmlns="http://www.w3.org/2000/svg" xmlns:xlink="http://www.w3.org/1999/xlink" width="24" height="24" preserveAspectRatio="xMidYMid meet" viewBox="0 0 24 24" style="-ms-transform: rotate(360deg); -webkit-transform: rotate(360deg); transform: rotate(360deg);"><path d="M16 2H8c-1.103 0-2 .897-2 2v16c0 1.103.897 2 2 2h8c1.103 0 2-.897 2-2V4c0-1.103-.897-2-2-2zM8 20V4h8l.001 16H8zM3 7h2V5H3v.5H2v1h1zm18-2h-2v2h2v-.5h1v-1h-1zM3 11h2V9H3v.5H2v1h1zm18-2h-2v2h2v-.5h1v-1h-1zM3 15h2v-2H3v.5H2v1h1zm18-2h-2v2h2v-.5h1v-1h-1zM3 19h2v-2H3v.5H2v1h1zm18-2h-2v2h2v-.5h1v-1h-1z" fill="#ebdbb2"/><rect x="0" y="0" width="24" height="24" fill="rgba(0, 0, 0, 0)" /></svg>