<svg xmlns="http://www.w3.org/2000/svg" xmlns:xlink="http://www.w3.org/1999/xlink" width="512" height="512" preserveAspectRatio="xMidYMid meet" viewBox="0 0 512 512" style="-ms-transform: rotate(360deg); -webkit-transform: rotate(360deg); transform: rotate(360deg);"><path d="M64 192v-72a40 40 0 0 1 40-40h75.89a40 40 0 0 1 22.19 6.72l27.84 18.56a40 40 0 0 0 22.19 6.72H408a40 40 0 0 1 40 40v40" fill="none" stroke="#ebdbb2" stroke-linecap="round" stroke-linejoin="round" stroke-width="32"/><path d="M479.9 226.55L463.68 392a40 40 0 0 1-39.93 40H88.25a40 40 0 0 1-39.93-40L32.1 226.55A32 32 0 0 1 64 192h384.1a32 32 0 0 1 31.8 34.55z" fill="none" stroke="#ebdbb2" stroke-linecap="round" stroke-linejoin="round" stroke-width="32"/><rect x="0" y="0" width="512" height="512" fill="rgba(0, 0, 0, 0)" /></svg>