<svg xmlns="http://www.w3.org/2000/svg" xmlns:xlink="http://www.w3.org/1999/xlink" width="24" height="24" preserveAspectRatio="xMidYMid meet" viewBox="0 0 24 24" style="-ms-transform: rotate(360deg); -webkit-transform: rotate(360deg); transform: rotate(360deg);"><path d="M17 17a5 5 0 1 1-8-4V5a3 3 0 1 1 6 0v8c1.214.912 2 2.364 2 4zm-3.201-2.401l-.799-.6V5a1 1 0 1 0-2 0v8.999l-.799.6a3 3 0 1 0 3.598 0zM12 19a2 2 0 1 1 0-4a2 2 0 0 1 0 4z" fill="#ebdbb2"/><rect x="0" y="0" width="24" height="24" fill="rgba(0, 0, 0, 0)" /></svg>