<svg xmlns="http://www.w3.org/2000/svg" xmlns:xlink="http://www.w3.org/1999/xlink" width="512" height="512" preserveAspectRatio="xMidYMid meet" viewBox="0 0 512 512" style="-ms-transform: rotate(360deg); -webkit-transform: rotate(360deg); transform: rotate(360deg);"><path d="M344 416a23.92 23.92 0 0 1-14.21-4.69c-.23-.16-.44-.33-.66-.51l-91.46-74.9H168a24 24 0 0 1-24-24V200.07a24 24 0 0 1 24-24h69.65l91.46-74.9c.22-.18.43-.35.66-.51A24 24 0 0 1 368 120v272a24 24 0 0 1-24 24z" fill="#ebdbb2"/><rect x="0" y="0" width="512" height="512" fill="rgba(0, 0, 0, 0)" /></svg>